<svg width="30" height="28" viewBox="0 0 30 28" fill="none" xmlns="http://www.w3.org/2000/svg">
<path d="M6.67067 10.7499C8.7799 10.7499 10.4898 8.97044 10.4898 6.77535C10.4898 4.58025 8.7799 2.80078 6.67067 2.80078C4.56144 2.80078 2.85156 4.58025 2.85156 6.77535C2.85156 8.97044 4.56144 10.7499 6.67067 10.7499Z" fill="#E9612D"/>
<path d="M16.8562 10.7501C19.7086 10.7501 22.021 8.34358 22.021 5.37503C22.021 2.40648 19.7086 0 16.8562 0C14.0038 0 11.6914 2.40648 11.6914 5.37503C11.6914 8.34358 14.0038 10.7501 16.8562 10.7501Z" fill="#E9612D"/>
<path d="M29.5072 14.9849L24.8668 18.9233V12.8546C24.8668 12.299 24.434 11.8486 23.9002 11.8486H0.96662C0.432767 11.8486 0 12.299 0 12.8546V26.9941C0 27.5496 0.432767 28 0.96662 28H4.65622C3.76226 27.2735 3.18733 26.1426 3.18733 24.8703C3.18733 22.6743 4.8963 20.8958 7.00644 20.8958C9.11658 20.8958 10.8255 22.6743 10.8255 24.8703C10.8255 26.1426 10.2506 27.2735 9.35663 28H14.9131C14.0192 27.2735 13.4442 26.1426 13.4442 24.8703C13.4442 22.6743 15.1532 20.8958 17.2633 20.8958C19.3735 20.8958 21.0825 22.6743 21.0825 24.8703C21.0825 26.1426 20.5075 27.2735 19.6136 28H23.9002C24.434 28 24.8668 27.5496 24.8668 26.9941V20.9254L29.5072 24.8638C29.7062 25.0314 30 24.8868 30 24.6205V15.2282C30 14.9619 29.7031 14.8172 29.5072 14.9849Z" fill="#E9612D"/>
</svg>
