<svg width="175" height="54" viewBox="0 0 175 54" fill="none" xmlns="http://www.w3.org/2000/svg">
<path d="M21.4097 18.8011C21.3084 18.9597 21.1692 19.0675 21.0299 19.0675C20.9982 19.0675 18.4914 19.226 17.3265 20.9317C16.7758 21.7307 16.4023 22.9038 16.2314 24.451C18.8015 24.5588 20.4538 24.6095 20.4538 24.6095C20.764 24.6602 20.9666 24.9836 20.9666 25.4085V32.1299C20.9666 32.5548 20.7577 32.9289 20.4538 32.9289C20.4538 32.9289 18.6686 33.0367 15.9275 33.0874C15.8959 35.1165 15.8959 36.9808 15.8959 38.2046C15.8959 43.4867 15.6869 53.1377 15.6869 53.2455C15.6869 53.6703 15.4464 53.9937 15.1742 53.9937H4.08316C3.81095 53.9937 3.57039 53.6767 3.57039 53.2455C3.57039 53.1377 3.05763 42.3136 2.98799 33.0304C1.44335 32.9733 0.5191 32.9226 0.481117 32.9226C0.208906 32.9352 0 32.5611 0 32.1299V25.4085C0 24.9836 0.208906 24.6602 0.481117 24.6095C0.51277 24.6095 1.475 24.5524 3.05763 24.5017C3.15891 20.342 3.53874 16.715 4.80484 14.2103C6.5204 10.9573 8.71708 9.83496 13.2814 9.83496C19.1497 9.83496 20.5867 11.1666 20.726 11.3314C20.8653 11.4392 20.9349 11.6485 20.9666 11.8641L21.549 18.1607C21.549 18.37 21.511 18.6363 21.4097 18.8011Z" fill="white"/>
<path d="M46.2116 53.2518C46.2116 53.6766 45.9774 54 45.7052 54H33.6646C33.3924 54 33.1898 53.683 33.1581 53.2518C33.1581 53.144 33.0568 46.5874 33.2594 38.3187C33.462 30.0501 33.6962 23.652 33.6962 23.5949C33.7279 23.1701 33.9305 22.8467 34.2027 22.8467H45.1987C45.4709 22.8467 45.7052 23.1637 45.7052 23.5949C45.7052 23.6456 46.009 30.0501 46.1799 38.3187C46.3825 46.6381 46.2116 53.2011 46.2116 53.2518Z" fill="white"/>
<path d="M74.0861 53.2518C74.0861 53.6766 73.8519 54 73.5797 54H61.5454C61.2732 54 61.0706 53.683 61.039 53.2518C61.039 53.144 60.9377 46.5874 61.1403 38.3187C61.3429 30.0501 61.5771 23.652 61.5771 23.5949C61.6087 23.1701 61.8113 22.8467 62.0835 22.8467H73.0733C73.3455 22.8467 73.5797 23.1637 73.5797 23.5949C73.5797 23.6456 73.8836 30.0501 74.0545 38.3187C74.2571 46.6381 74.0861 53.2011 74.0861 53.2518Z" fill="white"/>
<path d="M101.966 53.2518C101.966 53.6766 101.731 54 101.459 54H89.4185C89.1463 54 88.9437 53.683 88.912 53.2518C88.912 53.144 88.8108 46.5874 89.0133 38.3187C89.2159 30.0501 89.4501 23.652 89.4501 23.5949C89.4818 23.1701 89.6844 22.8467 89.9566 22.8467H100.946C101.219 22.8467 101.453 23.1637 101.453 23.5949C101.453 23.6456 101.757 30.0501 101.928 38.3187C102.136 46.6381 101.966 53.2011 101.966 53.2518Z" fill="white"/>
<path d="M95.4582 20.729C99.6852 20.729 103.112 17.2967 103.112 13.0628C103.112 8.82879 99.6852 5.39648 95.4582 5.39648C91.2313 5.39648 87.8047 8.82879 87.8047 13.0628C87.8047 17.2967 91.2313 20.729 95.4582 20.729Z" fill="url(#paint0_linear_695_170)"/>
<path d="M67.5852 20.729C71.8121 20.729 75.2388 17.2967 75.2388 13.0628C75.2388 8.82879 71.8121 5.39648 67.5852 5.39648C63.3583 5.39648 59.9316 8.82879 59.9316 13.0628C59.9316 17.2967 63.3583 20.729 67.5852 20.729Z" fill="url(#paint1_linear_695_170)"/>
<path d="M39.7043 20.729C43.9313 20.729 47.3579 17.2967 47.3579 13.0628C47.3579 8.82879 43.9313 5.39648 39.7043 5.39648C35.4774 5.39648 32.0508 8.82879 32.0508 13.0628C32.0508 17.2967 35.4774 20.729 39.7043 20.729Z" fill="url(#paint2_linear_695_170)"/>
<path d="M128.243 20.729C132.47 20.729 135.897 17.2967 135.897 13.0628C135.897 8.82879 132.47 5.39648 128.243 5.39648C124.016 5.39648 120.59 8.82879 120.59 13.0628C120.59 17.2967 124.016 20.729 128.243 20.729Z" fill="white"/>
<path d="M148.659 20.7351C154.375 20.7351 159.009 16.0934 159.009 10.3675C159.009 4.64171 154.375 0 148.659 0C142.943 0 138.309 4.64171 138.309 10.3675C138.309 16.0934 142.943 20.7351 148.659 20.7351Z" fill="white"/>
<path d="M174.012 28.896L164.713 36.4925V24.787C164.713 23.7154 163.845 22.8467 162.775 22.8467H116.816C115.746 22.8467 114.879 23.7154 114.879 24.787V52.0597C114.879 53.1313 115.746 54 116.816 54H124.21C122.419 52.5987 121.266 50.4174 121.266 47.9634C121.266 43.7276 124.691 40.2971 128.92 40.2971C133.149 40.2971 136.573 43.7276 136.573 47.9634C136.573 50.4174 135.421 52.5987 133.63 54H144.765C142.974 52.5987 141.821 50.4174 141.821 47.9634C141.821 43.7276 145.246 40.2971 149.475 40.2971C153.704 40.2971 157.129 43.7276 157.129 47.9634C157.129 50.4174 155.976 52.5987 154.185 54H162.775C163.845 54 164.713 53.1313 164.713 52.0597V40.3605L174.012 47.9571C174.411 48.2804 175 48.0014 175 47.4878V29.3716C175 28.858 174.404 28.5726 174.012 28.896Z" fill="white"/>
<defs>
<linearGradient id="paint0_linear_695_170" x1="102.895" y1="14.8978" x2="88.0217" y2="11.2427" gradientUnits="userSpaceOnUse">
<stop stop-color="#E42256"/>
<stop offset="0.0399" stop-color="#E32955"/>
<stop offset="0.3278" stop-color="#DD4547"/>
<stop offset="0.5933" stop-color="#D9543B"/>
<stop offset="0.8258" stop-color="#D65B33"/>
<stop offset="1" stop-color="#D55E30"/>
</linearGradient>
<linearGradient id="paint1_linear_695_170" x1="75.0191" y1="14.8978" x2="60.146" y2="11.2427" gradientUnits="userSpaceOnUse">
<stop stop-color="#E42256"/>
<stop offset="0.0399" stop-color="#E32955"/>
<stop offset="0.3278" stop-color="#DD4547"/>
<stop offset="0.5933" stop-color="#D9543B"/>
<stop offset="0.8258" stop-color="#D65B33"/>
<stop offset="1" stop-color="#D55E30"/>
</linearGradient>
<linearGradient id="paint2_linear_695_170" x1="47.1419" y1="14.8978" x2="32.2687" y2="11.2427" gradientUnits="userSpaceOnUse">
<stop stop-color="#E42256"/>
<stop offset="0.0399" stop-color="#E32955"/>
<stop offset="0.3278" stop-color="#DD4547"/>
<stop offset="0.5933" stop-color="#D9543B"/>
<stop offset="0.8258" stop-color="#D65B33"/>
<stop offset="1" stop-color="#D55E30"/>
</linearGradient>
</defs>
</svg>
