<svg width="55" height="51" viewBox="0 0 55 51" fill="none" xmlns="http://www.w3.org/2000/svg">
<path d="M12.2263 20.1197C16.0932 20.1197 19.228 16.942 19.228 13.0222C19.228 9.10244 16.0932 5.9248 12.2263 5.9248C8.35939 5.9248 5.22461 9.10244 5.22461 13.0222C5.22461 16.942 8.35939 20.1197 12.2263 20.1197Z" fill="#E9612D"/>
<path d="M30.9063 20.1204C36.1357 20.1204 40.3751 15.8231 40.3751 10.5221C40.3751 5.22112 36.1357 0.923828 30.9063 0.923828C25.6768 0.923828 21.4375 5.22112 21.4375 10.5221C21.4375 15.8231 25.6768 20.1204 30.9063 20.1204Z" fill="#E9612D"/>
<path d="M54.0966 27.6825L45.5891 34.7153V23.8784C45.5891 22.8863 44.7957 22.082 43.817 22.082H1.77214C0.793407 22.082 0 22.8863 0 23.8784V49.1274C0 50.1195 0.793407 50.9238 1.77214 50.9238H8.53641C6.89747 49.6264 5.84344 47.607 5.84344 45.3351C5.84344 41.4136 8.97655 38.2376 12.8451 38.2376C16.7137 38.2376 19.8468 41.4136 19.8468 45.3351C19.8468 47.607 18.7928 49.6264 17.1538 50.9238H27.3407C25.7018 49.6264 24.6478 47.607 24.6478 45.3351C24.6478 41.4136 27.7809 38.2376 31.6495 38.2376C35.5181 38.2376 38.6512 41.4136 38.6512 45.3351C38.6512 47.607 37.5971 49.6264 35.9582 50.9238H43.817C44.7957 50.9238 45.5891 50.1195 45.5891 49.1274V38.2905L54.0966 45.3233C54.4614 45.6227 55 45.3644 55 44.8889V28.1169C55 27.6414 54.4556 27.3831 54.0966 27.6825Z" fill="#E9612D"/>
</svg>
